/* XPM */
static char *result[] = {
/* columns rows colors chars-per-pixel */
"67 98 251 2 ",
"   c #38283F",
".  c #57283F",
"X  c #75313E",
"o  c #57473E",
"O  c #362741",
"+  c #362942",
"@  c #392942",
"#  c #3A2742",
"$  c #373951",
"%  c #372E6D",
"&  c #37316D",
"*  c #3B316C",
"=  c #3B3A69",
"-  c #393170",
";  c #432943",
":  c #4B2943",
">  c #4D2949",
",  c #472743",
"<  c #5D2741",
"1  c #542A43",
"2  c #5D2942",
"3  c #532A4A",
"4  c #5D2A4D",
"5  c #562741",
"6  c #4B364B",
"7  c #5A394A",
"8  c #543D52",
"9  c #622A44",
"0  c #6C2A4C",
"q  c #652A48",
"w  c #732A4E",
"e  c #71264D",
"r  c #692A52",
"t  c #742A53",
"y  c #7A2A54",
"u  c #792959",
"i  c #763756",
"p  c #693349",
"a  c #4C3A6A",
"s  c #793468",
"d  c #374E55",
"f  c #394874",
"g  c #397771",
"h  c #504A56",
"j  c #744A58",
"k  c #6C4A52",
"l  c #47466A",
"z  c #505073",
"x  c #71516B",
"c  c #496F6B",
"v  c #736B78",
"b  c #DD663E",
"n  c #8D265C",
"m  c #842A5A",
"M  c #8D2A5D",
"N  c #822A56",
"B  c #902B5D",
"V  c #952B5B",
"C  c #8A355E",
"Z  c #94355B",
"A  c #893946",
"S  c #A23957",
"D  c #BA3E56",
"F  c #8C3561",
"G  c #913C63",
"H  c #933762",
"J  c #902B60",
"K  c #8E4B57",
"L  c #B94845",
"P  c #BA4A54",
"I  c #B15353",
"U  c #916F52",
"Y  c #B66656",
"T  c #884764",
"R  c #964769",
"E  c #8B5968",
"W  c #955C6E",
"Q  c #97566C",
"!  c #985B71",
"~  c #8E5872",
"^  c #A85866",
"/  c #A95870",
"(  c #98666C",
")  c #956572",
"_  c #996672",
"`  c #996973",
"'  c #976B74",
"]  c #987875",
"[  c #8B6B71",
"{  c #A46765",
"}  c #A66777",
"|  c #A67679",
" . c #B67C76",
".. c #B06F68",
"X. c #C75749",
"o. c #C65657",
"O. c #C24D4E",
"+. c #C26252",
"@. c #C46C54",
"#. c #C47855",
"$. c #D5734F",
"%. c #E8734B",
"&. c #FE7642",
"*. c #FE7A43",
"=. c #F57747",
"-. c #E76E4C",
";. c #C67975",
":. c #D4736A",
">. c #E0736B",
",. c #BC4B3F",
"<. c #3D8F7A",
"1. c #39A47F",
"2. c #4B9B7A",
"3. c #709571",
"4. c #42A57E",
"5. c #48A97D",
"6. c #55AA78",
"7. c #58B37A",
"8. c #68B976",
"9. c #7AB972",
"0. c #71AB73",
"q. c #7DC56E",
"w. c #7BC472",
"e. c #74C272",
"r. c #6EC075",
"t. c #FEBB3F",
"y. c #FA913E",
"u. c #B4AA58",
"i. c #859373",
"p. c #B08D76",
"a. c #93AD66",
"s. c #9AB664",
"d. c #85B271",
"f. c #A5B576",
"g. c #B0995D",
"h. c #DA8A4B",
"j. c #CA8454",
"k. c #CF9352",
"l. c #E5874A",
"z. c #F88744",
"x. c #F89644",
"c. c #E6934C",
"v. c #CEAF56",
"b. c #F8A845",
"n. c #FEBC44",
"m. c #F8B647",
"M. c #EFB74F",
"N. c #D38372",
"B. c #C6947C",
"V. c #DD9777",
"C. c #D18B6E",
"Z. c #E69877",
"A. c #E58D6C",
"S. c #EBA976",
"D. c #EBAA7A",
"F. c #E9A578",
"G. c #B1CB5B",
"H. c #82C96D",
"J. c #88C469",
"K. c #91C968",
"L. c #FBC644",
"P. c #F9D845",
"I. c #ECD94A",
"U. c #FAE946",
"Y. c #FDFE43",
"T. c #FAF748",
"R. c #E6ED4A",
"E. c #F7C771",
"W. c #CEC14F",
"Q. c #364D8A",
"!. c #394D89",
"~. c #3B5489",
"^. c #385697",
"/. c #367A9C",
"(. c #397A9B",
"). c #3C7997",
"_. c #38718A",
"`. c #3F70B9",
"'. c #49578B",
"]. c #4C7093",
"[. c #4574B9",
"{. c #4578B9",
"}. c #486EAE",
"|. c #716D85",
" X c #B37987",
".X c #816F80",
"XX c #C87780",
"oX c #398A8C",
"OX c #3B9D85",
"+X c #389889",
"@X c #378595",
"#X c #369090",
"$X c #36A283",
"%X c #3AA383",
"&X c #569A87",
"*X c #488B8C",
"=X c #768E96",
"-X c #44A582",
";X c #58A185",
":X c #4C85BC",
">X c #6A90B1",
",X c #4F95C4",
"<X c #55ACCC",
"1X c #54A5CA",
"2X c #AA8886",
"3X c #B99994",
"4X c #B38D90",
"5X c #BAA297",
"6X c #ACAC98",
"7X c #A393A1",
"8X c #BE8CA5",
"9X c #989D9F",
"0X c #C79B8D",
"qX c #CDB58B",
"wX c #C5AD9D",
"eX c #C7A999",
"rX c #C7B19E",
"tX c #D2AA89",
"yX c #ECAC87",
"uX c #EFB592",
"iX c #C596A4",
"pX c #C9B4A4",
"aX c #CAB6A7",
"sX c #CEB0AF",
"dX c #ECA490",
"fX c #9DCE8D",
"gX c #D7C9B8",
"hX c #D1C8B7",
"jX c #F9C5AC",
"kX c #F7C3A7",
"lX c #F9C8B0",
"zX c #EAD1AD",
"xX c #EFE6B6",
"cX c #E5D69A",
"vX c #859EC1",
"bX c #A8BCCE",
"nX c #DED4C5",
"mX c #D0D4D2",
"MX c #E3D8C8",
"NX c #E8DECF",
"BX c #E7E2CE",
"VX c #E6E3D2",
"CX c #E9E5D2",
"ZX c #EDEADB",
"AX c #F6ECD8",
"SX c #D7DEE4",
"DX c #F6F6EA",
"FX c #F9FAF6",
"GX c #E7E9E9",
"HX c #B9C6CE",
"JX c None",
/* pixels */
"JXJXJXJXJXJXJXJXJXJXJXJXJXJXJXJXJXJXJXJXJXJXJXJXJXJXB M n n J JXJXJXJXJXJXJXJXM n B B n JXJXJXJXJXJXJXJXJXJXJXJXJXJXJXJXJXJXJXJXJXJXJX",
"JXJXJXJXJXJXJXJXJXJXJXJXJXJXJXJXJXJXJXJXJXJXJXJXJXJXJ M n n M JXJXJXJXJXJXJXJXJ n n n M JXJXJXJXJXJXJXJXJXJXJXJXJXJXJXJXJXJXJXJXJXJXJX",
"JXJXJXJXJXJXJXJXJXJXJXJXJXJXJXJXJXJXJXJXJXJXJXJXJXJXS S Z I I JXJXJXJXJXJXJXJXK K S S V JXJXJXJXJXJXJXJXJXJXJXJXJXJXJXJXJXJXJXJXJXJXJX",
"JXJXJXJXJXJXJXJXJXJXJXJXJXJXJXJXJXJXJXJXJXJXJXJ J V -.=.x.m.c.K J n JXJXJ n I b.b.z.=.-.Z n JXJXJXJXJXJXJXJXJXJXJXJXJXJXJXJXJXJXJXJXJX",
"JXJXJXJXJXJXJXJXJXJXJXJXJXJXJXJXJXJXJXJXJXJXJXB n Z =.&.x.n.m.Z n M JXJXn n I b.t.x.&.-.V n JXJXJXJXJXJXJXJXJXJXJXJXJXJXJXJXJXJXJXJXJX",
"JXJXJXJXJXJXJXJXJXJXJXJXJXJXJXJXJXJXJXJXJXJXM P X.X.x.x.t.P.P.h.#.Y M M Y #.k.P.P.n.y.x.X.O.P V JXJXJXJXJXJXJXJXJXJXJXJXJXJXJXJXJXJXJX",
"JXJXJXJXJXJXJXJXJXJXJXJXJXJXJXJXJXJXJXJXJXM M o.&.z.m.n.P.Y.Y.L.t.h.M Z c.n.L.Y.Y.P.n.b.*.*.O.M B JXJXJXJXJXJXJXJXJXJXJXJXJXJXJXJXJXJX",
"JXJXJXJXJXJXJXJXJXJXJXJXJXJXJXJXJXJXJXJXJXM M X.*.z.b.m.P.T.U.L.L.h.Z K c.t.P.T.T.L.m.b.z.z.O.n B JXJXJXJXJXJXJXJXJXJXJXJXJXJXJXJXJXJX",
"JXJXJXJXJXJXJXJXJXJXJXJXJXJXJXJXJXJXJXJXJXJ M $.t.y.X.,.h.L.L.U.T.U.I.I.U.Y.U.L.L.h.,.b b.b.@.n M JXJXJXJXJXJXJXJXJXJXJXJXJXJXJXJXJXJX",
"JXJXJXJXJXJXJXJXJXJXJXJXJXJXJXJXJXJXJXJXJXJ M $.L.t.,.L h.L.L.Y.Y.Y.Y.Y.Y.Y.U.t.t.b ,.,.m.n.#.n B JXJXJXJXJXJXJXJXJXJXJXJXJXJXJXJXJXJX",
"JXJXJXJXJXJXJXJXJXJXJXJXJXJXJXJXJXJXJXJX4 M M @.t.l.,.,.b h.h.P.U.U.Y.Y.U.U.I.c.c.@.,.,.x.b.+.n M JXJXJXJXJXJXJXJXJXJXJXJXJXJXJXJXJXJX",
"JXJXJXJXJXJXJXJXJXJXJXJXJXJXJXJXJXJX@ + > M M o.&.=.,.,.,.,.,.b.t.P.Y.Y.P.L.y.,.,.,.,.,.=.&.o.n m , @ @ JXJXJXJXJXJXJXJXJXJXJXJXJXJXJX",
"JXJXJXJXJXJXJXJXJXJXJXJXJXJXJXJXJXJX@ + > M M X.*.=.,.,.L ,.,.b.t.L.T.U.L.m.c.L ,.,.,.,.=.=.O.n m , @ @ JXJXJXJXJXJXJXJXJXJXJXJXJXJXJX",
"JXJXJXJXJXJXJXJXJXJXJXJXJXJXJXJX@ @ r u i Q Q { ..{ ^ Q K X X ....p.p.g.{ I I ^ ( K Z Z A A A B m 4 1 :   @ JXJXJXJXJXJXJXJXJXJXJXJXJX",
"JXJXJXJXJXJXJXJXJXJXJXJXJXJXJXJX# @ u J H _ ` ` _ _ ( ' j . . E ( ) ) ) C m C _ ( R M m < < w n m q 9 : O + JXJXJXJXJXJXJXJXJXJXJXJXJX",
"JXJXJXJXJXJXJXJXJXJXJXJXJXJXJXJXO # t J H _ ` _ ` _ W W K . p E ( ( ' ( Z M G _ ( C n m 9 < w V M e 0 q > 3 JXJXJXJXJXJXJXJXJXJXJXJXJX",
"JXJXJXJXJXJXJXJXJXJXJXJXJXJXJXJX@ @ u n F _ ' _ ` ) C M y . 9 ( ` ` _ _ G M C _ _ R n m 9 9 y B M M M m M m > @ @ JXJXJXJXJXJXJXJXJXJX",
"JXJXJXJXJXJXJXJXJXJXJXJXJXJXJXJX@ @ t B Z ) ) ) _ ! M M y 9 9 E ' ` _ ) G M Z _ _ G B m 9 2 w B n M M B M J > @ @ JXJXJXJXJXJXJXJXJXJX",
"JXJXJXJXJXJXJXJXJXJXJXJXJXJX+ 3 r t m n Z } p. . .| i 0 9 9 p (  .p. . .T e K |  .( Q T 9 . i Q Q Q Q G B m > @ @ JXJXJXJXJXJXJXJXJXJX",
"JXJXJXJXJXJXJXJXJXJXJXJXJX@ + 3 J J n n R B.B.B.C.p.p 2 9 . p  .B.B.p.C.j . i B.B.| ` W q 2 j _ _ ` ' R B m > + @ JXJXJXJXJXJXJXJXJXJX",
"JXJXJXJXJXJXJXJXJXJXJXJXJX+ + 3 u N m m Z  .p.;. ...p 2 9 q p } ;.;. . .k . i  . .} ( E 6 1 j ( W W E T N N > @ @ JXJXJXJXJXJXJXJXJXJX",
"JXJXJXJXJXJXJXJXJXJXJXJXJX+ + @ ; ; 4 9 w Z Z J Z C 0 2 w M M Z M C F H 3 + 5 C Z t 2 5 . ; : 9 p 2 p 9 9 p ; + + JXJXJXJXJXJXJXJXJXJX",
"JXJXJXJXJXJXJXJXJXJXJXJXJX@ + + O # 1 2 0 n J B B m 9 9 w M B M M B M M > + : M M w 2 1 @   1 . . 2 2 2 2 2 ; + @ JXJXJXJXJXJXJXJXJXJX",
"JXJXJXJXJXJXJXJXJXJXJXJXJX$ + + + + 1 2 2 r r u B N q . w B M B J n B m 3 + > M M w 2 1 + + . 2 2 2 . 2 2 2 ; + @ JXJXJXJXJXJXJXJXJXJX",
"JXJXJXJXJXJXJXJXJXJXJXJXJX+ + + + + 3 2 2 @ @ r M m q . w B B M M n J M > + > M M 0 . .   @ : 2 2 2 2 2 9 2 ; + + JXJXJXJXJXJXJXJXJXJX",
"JXJXJXJXJXJXJXJXJXJXJXJXJX@ @ + @ @ 3 2 1 @ + r C N q 9 y J V M n B n M > + > m M w p 9 ;   , 2 2 1 2 2 2 3 ; + @ JXJXJXJXJXJXJXJXJXJX",
"JXJXJXJXJXJXJXJXJXJXJXJXJX+ + @ @ + # ; @ @     > , ; # K V.;.S M n J M > O @ > : { C...p . , ; ; # # ; # ; + O @ JXJXJXJXJXJXJXJXJXJX",
"JXJXJXJXJXJXJXJXJXJXJXJXJX+ + @ O   + + + +     O O O   K dXZ.G n n n m > O O +   ..Z.C.p . , @ @ @ + + O O O O @ JXJXJXJXJXJXJXJXJXJX",
"JXJXJXJXJXJXJXJXJXJXJXJXJX@ @ 6 k j 6 O + +   k k k d d v p.2X{ ^ ^ ^ ^ T k k = $ v 3Xp.U K 7   @ + + 8 j j ; O @ JXJXJXJXJXJXJXJXJXJX",
"JXJXJXJXJXJXJXJXJXJXJXJXJX+   k Z.Z.k O + @   U v.v.4.1._.Q.z B.S.S.D.S.D.D.p.~.Q.g 1.6.u.k.U O + + + j Z.V.k O   JXJXJXJXJXJXJXJXJXJX",
"JXJXJXJXJXJXJXJXJXJXJXJXJX+ + k Z.A.k O @ @ # U v.v.2.OX_.Q.f 0XS.D.D.S.S.S.p.'.Q.oXOX6.v.c.U O @ @ @ K Z.V.k + @ JXJXJXJXJXJXJXJXJXJX",
"JXJXJXJXJXJXJXJXJXJXJXJXJX+ O k dXV.R e r 4 3 4XxXgX]._.~.~.'.B.S.yXuXkXD.S.4X'.Q.~._.*XgXxX2X1 7 0 t W Z.V.7   @ JXJXJXJXJXJXJXJXJXJX",
"JXJXJXJXJXJXJXJXJXJXJXJXJX+   j Z.Z.^ n m 8 3 sXFXSX'.Q.Q.!.'.B.S.yXjXjXyXS.B.!.Q.Q.!.].GXFX7Xr r n n / yXZ.7 # @ JXJXJXJXJXJXJXJXJXJX",
"JXJXJXJXJXJXJXJXJXJXJXJXJXO O k >.>.R F F r r iXFXSX].Q.Q.Q.'.0XyXuXjXjXuXyX4X'.Q.Q.Q.].GXFX Xr s s Z / :.;.7 @ @ JXJXJXJXJXJXJXJXJXJX",
"JXJXJXJXJXJXJXJXJXJXJXJXJX+ + 3 J H Q _ ! m m iXFXSX'.~.!.Q.'.sXkXjXjXjXjXjXeX~.!.Q.!.].GXFX Xn M W _ R Z C > + @ JXJXJXJXJXJXJXJXJXJX",
"JXJXJXJXJXJXJXJXJXJXJXJXJX+ + 3 n J Q ' ! J n iXFXSX'.!.!.Q.'.sXjXjXjXlXlXlXiX'.Q.Q.!.].GXFXiXn F W _ Q M M > + @ JXJXJXJXJXJXJXJXJXJX",
"JXJXJXJXJXJXJXJXJXJXJX+ @ + + > t t E _ ! M M 0XzXgX4X7X7X7X7XuXuXyXZ.dXyXuXtX7X7X7X7X7XzXzX Xn M ! ` T w w ; @ @ @ + JXJXJXJXJXJXJXJX",
"JXJXJXJXJXJXJXJXJXJXJX+ + @ + ; 4 2 E _ Q M M ;.F.D.jXlXlXlXkXD.F.A.>.>.Z.S.yXlXlXjXlXkXF.yXo.J M _ ' T 2 . ; @ @ + + JXJXJXJXJXJXJXJX",
"JXJXJXJXJXJXJXJXJXJXJX; ; @ @ ; 2 2 T ' ! Z M ;.Z.yXkXkXkXkXuXyXF.Z.>.>.Z.D.yXkXkXkXjXuXZ.Z...V F W _ E 2 2 ; + @ ; ; JXJXJXJXJXJXJXJX",
"JXJXJXJXJXJXJXJX+ + 4 m u > + @ @ ; j ' _ W _ ^ P o.Z.D.yXD.yXS.F.F.F.F.S.D.D.D.yXD.yXdXo.o.^ W _ _ _ j   @ + + > u m 3 @ @ JXJXJXJXJX",
"JXJXJXJXJXJXJXJX@   4 M m > + + @ + x ` ` ' ` ^ D o.Z.S.S.S.S.S.D.S.S.S.D.D.D.S.F.F.S.A.P P / ) ` ` ` j + +   + 3 J M 3   @ JXJXJXJXJX",
"JXJXJXJXJXJXJXJX; , r M M r 4 > @ + k x j ' ` ^ ^ ^ Z.D.F.D.F.C.:.C.>.C.A.Z.Z.F.S.S.D.Z.I ^ / ) ( x j h + @ 3 4 r J M 4 ; , JXJXJXJXJX",
"JXJXJXJXJX@ @ @ 3 2 w B M M B t @ @ @   6 [ ( ` ` ..V.D.D.D.F.I P L L L o.>.A.D.D.S.D.V.( ` ' ( ) 6   @ + @ u M J m J 0 2 1 @ @ JXJXJX",
"JXJXJXJXJX@ @ ; 2 9 w B B M B t @ @ + @ 6 [ ) ) ) ] V.yXF.S.F.Y I P P I :.>.>.S.S.F.D.V.( ) ) ) [ ; + @ # ; u M J J J w 9 2 @ + JXJXJX",
"JXJXJXJXJX@ @ ; t m G ! Q F M y 4 1 #   . 6 6 6 6 7 I P :.D.F.V.A.V.A.V.Z.Z.Z.S.F.:.o.I 8 6 6 6 6 @ + , 1 1 m M H W Q C m t @ @ JXJXJX",
"JXJXJXJXJX+ + ; m J T ' _ H M N 2 2 , O O O O O   ; P D :.D.D.D.S.S.S.S.S.S.S.S.D.@.O.S , # O       + , 2 9 N n G _ ` T M u @ @ JXJXJX",
"JXJXJXJXJX> 3 4 F G R _ _ F n y 5 3 d d d d d h k x  X;.;.N.N.N.C.N.N.C.C.C.N.N.N.;./ ^ h d d d d + @ > 2 9 m n G _ ' R G C 3 3 > JXJX",
"JXJXJX+ + r J F ! _ _ _ _ H B r # @ g $X$X1.1.9XeXpXAXDXiXV V V M M M M M V N B J  XrX6XOXOX$XOX<.$ + ; 2 9 m n G _ ) ) ) ! F J 4 @ @ ",
"JXJXJX+ # r n F ! ` ' _ _ G B t     <.1.1.1.$X9X6XaXAXDXiXJ J V J J J J J n B J M  .rX6X-X$X$X%XOX+   . . 9 m B Z ) ' ` ( W B M 4 @ @ ",
"JXJXJX@ O r J J W ` Q G G t e h g g 6.8.8.8.r.g.A.A.zXgXsXsXsX/ P P :.:.iXsXsX X XC.A.C.9.r.8.r.8.<.<.d 9 2 0 0 t R Z Q ' W J B 4 @ + ",
"JXJXJX+ + r n F _ _ R M n q 9 h %X$Xr.H.J.H.J.k.&.=.tX5XnXDXAX:.X.-.Z.Z.NXFXZXrXrXA.=.l.J.H.H.H.q.5.$Xc 9 9 < < 0 M B Q _ W M B 4 + @ ",
"JXJXJX+ # r V J Q W R B M q 9 h -X1.8.H.q.e.e.g.$.#.tXtXzXAXBXN.>.>.yXdXMXAXMXtXtXC.$.j.9.e.w.H.q.4.$Xc . 2 9 9 0 M M R W Q F M 4 + @ ",
"JXJXJX+ @ r M M M B B n M q < h OX1.8.H.e.4.1.*X].|.>.=.Z.rXaXBXAXAXAXAXsXaXtX=.=.[ *X@X-X%X;XH.e.5.$Xc 7 3 9 . 0 M M J B B B M 4 + + ",
"JXJXJX# O r B M B J M n M q 9 h %X$Xr.H.e.1.$X@X/.*X%.&.A.wXpXZXDXDXDXDXhXwXtX=.&.[ /.@X%X$Xr.H.w.4.$Xc 2 9 2 9 0 M M n B B B J q + + ",
"JXJXJX$ O 3 y y M M m t t q . h oX#X&X;X;X1.$X+X#X*Xi.] p.A.V.zXgXMXnXgXyXA.B.] ' &X@X#X$X$X;X;X;X#X#Xc 2 2 . 2 q w y m M n t y 1 + @ ",
"JXJXJX@ + > 2 9 m M y 2 2 2 9 h (./.(./.@XOX%X%X%X+X/./.] &.=.B.rXeXrXrXl.*.Y ]./.+X$X$X$X$X#X(.@X/./.z 2 2 2 2 2 2 2 y M N 9 2 ;   @ ",
"JXJXJX@ @ : 2 9 m M w 2 2 2 2 h ).]././.@X+XOX%X%X+X@X@X] *.z.tXaXaXpXpXA.*.#.*X/.+X$X$X$X%X@X(.(.).).z . 2 . 9 9 2 2 y n N 9 9 :   @ ",
"JXJXJX@   : 9 2 q q q 9 2 2 9 r F s './.(.@X@X+X%X%X+X+Xa.b.m.AXDXDXDXDXS.t.v.4.OXOX$X+X@X@X(.(.].s s i 9 2 9 9 2 2 2 9 9 9 9 . ; + @ ",
"JXJXJX@ @ : 9 2 9 2 2 2 2 2 2 e V M '././.)./.oX%X%X$X$Xa.n.m.AXFXFXFXFXE.t.u.4.$X%X4.+X/.(.(./.(.s B y . 9 2 . 2 2 2 2 2 2 9 < @ + @ ",
"JXJXJX@   ; : 1 . 9 2 2 9 2 2 q e t 3.d.9X3.3.&X#X+X$X$Xa.n.m.AXFXDXFXZXE.t.v.4.%X+XoX&X=Xi.3.d.3.i t 0 9 2 2 9 2 2 2 2 9 . 1 1 . + @ ",
"JXJXJXJXJX@ + # 2 2 2 2 2 9 9 .     u.Y.T.L.m.i././.%X$Xa.n.L.xXVXVXBXBXE.t.v.1.+X@X/.*XM.n.P.Y.R.o O ; 2 . 9 . . 2 2 2 2 2 @ + JXJXJX",
"JXJXJXJXJX@ @ @ 5 9 2 2 2 2 2 : # ; W.Y.U.m.L.i./.@X-XOXa.n.M.BXVXCXCXBXE.n.v.4.-X*X(.*XM.n.P.T.I.k + ; 9 < 2 2 9 2 9 2 2 5 @ + JXJXJX",
"JXJXJXJXJX@ @ @ 2 2 2 2 2 2 2 q y t qXxXzXqXqXp.[ |.x j 2XzXzXDXFXDXFXFXxXzXrXx x x |.] eXqXcXxXcXT t 0 9 < 9 . 2 9 2 2 9 1 @ + JXJXJX",
"JXJXJXJXJX@ @ # 1 2 2 2 2 2 2 e m M sXCXMXrXwX X_ ! n n 4XCXZXFXFXFXFXFXZXCXsXZ m Q ' | 5XwXgXCXnXR M y < . 9 9 9 . 9 2 2 5 @ + JXJXJX",
"JXJXJXJXJXJX+ @ 1 . 1 2 2 2 9 i / / sXnXgX5X3X| Q Q Q R 8XnXMXDXFXFXFXDXVXnXsXR R ! Q ! 3X3XaXgXgX X/ T 4 2 2 2 2 2 2 2 1 : @ + JXJXJX",
"JXJXJXJXJXJXJXJX@   : 2 2 2 . x BXNXaXpX3X] ( R V G 0XeXeXwXpXnXVXVXNXBXaX5XwXwXrX/ J H _ ` 4XrXpXMXVX7X2 2 2 2 2 2 2 ;   @ JXJXJXJXJX",
"JXJXJXJXJXJXJXJX+ @ , 4 9 2 . [ VXVXhXwX5X` ` T M Z eXwXrXpXpXnXVXVXVXNXhX5XwXwXwX/ n F _ _ 4XwXpXMXCX3X5 2 9 2 2 2 2 , @ @ JXJXJXJXJX",
"JXJXJXJXJXJXJXJX+ O 3 u y ' | 5XNXBX3X2X| ` ` |  X2XeXeXhXgXgXvXvXvXvXvXhXnXhXwXwX4X X X) ( | 2X2XMXVXaX] ] C y r : > ; JXJXJXJXJXJXJX",
"JXJXJXJXJXJXJXJX+ + 4 J J 0XeXhXNXVX4X) ) ) ( 4XpXpXpXpXhXCXVX>X[.[.[.[.HXCXMXpXwXwXwX5X' ' ) ) ] nXCXgXrXeXR J u # # JXJXJXJXJXJXJXJX",
"JXJXJXJXJXJXJXJX6 6 j R Q 3XpXhXnXnX2X~ [ {  .p.qXqXtXqXaXmXmX:X:X{.{.:XbXmXhXeXqXqXqXqX| ..' ~ ' gXBXgXsXpX} R x 8 6 JXJXJXJXJXJXJXJX",
"JXJXJXB M M F H 4X5XsXMXnXNXVXgXpXpXv - x M.M.P.T.R.L.M.p.{.{.1X<X1X1X1X:X{.=XM.M.P.T.U.M.m.U = a 5XpXhXNXNXnXnXgX3X3XR n J n n JXJXJX",
"JXJXJXM n n n H 3XeXhXVXNXNXVXnXwXwXz % h M.n.P.Y.T.L.L.p.}.[.1X<X<X<X<X:X{.=XM.t.U.Y.T.L.n.U - l 7XpXsXVXNXCXNXnXwXpX! n n n n JXJXJX",
"JXJXH } }  X X8XaXgXgXgXgXVXVXhX4X2Xx % z a.s.K.G.G.I.U.f.,X,X<X<X<X<X<X:X,X>XR.U.G.G.K.a.a.v % a 2X4XpXCXVXgXgXgXhXgXiX4X X X XQ JXJX",
"M B G eXpXgXZXZXCXCXgXeXpXnXCXsX) ) a % f <.4.$X$X5.R.Y.f.<X<X<X<X<X<X<X<X<XfXT.Y.e.$X1.1.1.g % - ~ ( 7XBXVXaXrXaXCXBXCXCXnXwXwX} n V ",
"M B G iXeXsXMXMXnXMXgXeXwXnXVXsX) [ l = f 4.1.%X$X5.R.Y.f.1X<X<X<X<X<X<X<X<X>XT.Y.J.$X$X1.1.g = a ~ ) 4XNXMXsXeXsXMXnXnXMXnXeXeX} J J ",
"JXJXJXj j j j j j j T G R 3XaX7Xa a 3.0.9.e.r.6.$X7.R.Y.f.{.:X1X<X<X<X<X:X:X=XY.Y.q.1.4.r.e.9.9.0.z a |.sXpX! R T j j j j j p k i JXJX",
"JXJXJX2 2 2 . . 2 < e M J 3XpX2X- % 3.H.q.H.H.7.OX6.R.Y.K.{.{.1X<X<X<X<X:X{.=XT.Y.J.1.4.q.H.H.H.9.f % |.wXeXR J N 2 2 2 5 2 . 9 JXJXJX",
"JXJXJX9 2 2 2 9 2 2 t y m ' 2X[ !.f 0.q.H.H.H.8.5.8.R.U.6X:X:X:X,X,X,X1X:X`.=XI.U.J.5.6.q.H.H.H.e.z f '.2X| C N y 9 2 2 2 9 9 q JXJXJX",
"JXJXJXJXJXJXJXJXJXJXJX2 9 2 < l /.@X;XH.H.H.H.H.q.K.L.n.a.[.{.[.[.{.{.[.`.`.=Xm.t.G.H.q.H.H.H.H.w.*X/.z 2 2 2 2 2 JXJXJXJXJXJXJXJXJXJX",
"JXJXJXJXJXJXJXJXJXJXJX2 9 9 < h (.].8.H.H.q.H.H.H.K.M.m.p.`.[.[.[.[.[.[.{.`.=XM.m.G.q.H.H.q.H.H.w.*X/.'.2 2 2 2 2 JXJXJXJXJXJXJXJXJXJX",
"JXJXJXJXJXJXJXJXJXJXJXJXJXJXJXl !.f 0.H.H.H.H.8.5.0.c.x.{ ^.^.[.[.[.[.[.}.^.|.l.z.a.4.6.q.H.H.H.w.f !.l JXJXJXJXJXJXJXJXJXJXJXJXJXJXJX",
"JXJXJXJXJXJXJXJXJXJXJXJXJXJXJXJX% * 3.H.H.H.H.7.$X2.%.*.( Q.^.}.[.`.[.[.^.Q.x =.=.i.$X5.q.H.H.H.d.l % * JXJXJXJXJXJXJXJXJXJXJXJXJXJXJX",
"JXJXJXJXJXJXJXJXJXJXJXJXJXJXJXJX- & 2.w.w.q.H.7.$X5.k.l.( |.z }.}.}.}.}.'.z [ k.h.3.$X4.q.q.q.r.8.l % * JXJXJXJXJXJXJXJXJXJXJXJXJXJXJX",
"JXJXJXJXJXJXJXJXJXJXJXJXJXJXJXJX& - g -X5.w.H.7.$X-Xd.J.g.=.%.z Q.Q.Q.~.Y =.h.s.K.7.$X4.q.q.7.1.1.f & - JXJXJXJXJXJXJXJXJXJXJXJXJXJXJX",
"JXJXJXJXJXJXJXJXJXJXJXJXJXJXJXJX- & <.1.5.w.H.7.$X4.w.H.u.&.-.z !.!.Q.f @.=.k.K.H.7.$X-Xw.H.7.$XOX= % - JXJXJXJXJXJXJXJXJXJXJXJXJXJXJX",
"JXJXJXJXJXJXJXJXJXJXJXJXJXJXJXJX- = 2.r.7.7.7.5.$X-Xw.H.s.u.u...{ { { { g.u.u.H.H.6.%X%X;X7.7.r.6.l % & JXJXJXJXJXJXJXJXJXJXJXJXJXJXJX",
"JXJXJXJXJXJXJXJXJXJXJXJXJXJXJXJX- & 3.H.e.4.OX$X$X4.w.H.H.H.s.l.&.&.&.=.s.H.H.H.H.7.%X%X$X$X8.q.9.l % & JXJXJXJXJXJXJXJXJXJXJXJXJXJXJX",
"JXJXJXJXJXJXJXJXJXJXJXJXJXJXJXJX- & 3.q.e.4.1.%X%X-Xr.w.e.w.J.h.*.=.z.l.a.w.w.e.w.-X$X%X%X5.8.q.9.l % & JXJXJXJXJXJXJXJXJXJXJXJXJXJXJX",
"JXJXJXJXJXJXJXJXJXJXJXJXJXJXJXJX& = 3.H.w.w.e.&X@X@X-X-X-X4.6.v.t.v.K.s.6.4.4.4.-X#X@X*Xe.w.q.q.9.l % & JXJXJXJXJXJXJXJXJXJXJXJXJXJXJX",
"JXJXJXJXJXJXJXJXJXJXJXJXJXJXJXJX& & 3.J.H.H.H.&X/./.+X%X%X$X5.v.t.v.J.q.5.1.$X$X$X@X/.*Xw.H.H.q.9.l & & JXJXJXJXJXJXJXJXJXJXJXJXJXJXJX",
"JXJXJXJXJXJXJXJXJXJXJXJXJXJXJXJX& * i.u.s.K.q.;X/.@X+X$X6.d.s.M.t.M.u.u.6.$X$X$X$X@X/.@Xw.H.s.u.g.l & & JXJXJXJXJXJXJXJXJXJXJXJXJXJXJX",
"JXJXJXJXJXJXJXJXJXJXJXJXJXJXJXJX& * +.=.l.J.w.&X/.@X+X$Xa.L.t.t.n.b.=.=.3.1.$X$X$X@X{.*Xw.H.k.&.%.a & a JXJXJXJXJXJXJXJXJXJXJXJXJXJXJX",
"JXJXJXJXJXJXJXJXJXJXJXJXJXJXJXJX& % Y &.l.K.J.3.).oX2.4.a.t.n.n.t.x.&.=.3.-X2.-X-X*X).*Xd.H.v.&.=.a % * JXJXJXJXJXJXJXJXJXJXJXJXJXJXJX",
"JXJXJXJXJXJXJXJXJXJXJXJXJXJXJXJX* a Y &.=.l.h.^ s T Y j.c.t.t.y.z.z.&.&.$.#.j.j.j.Q s T $.l.%.&.-.a & & JXJXJXJXJXJXJXJXJXJXJXJXJXJXJX",
"JXJXJXJXJXJXJXJXJXJXJXJXJXJXJXJX& & X.&.&.&.&.P J S &.*.x.L.m.z.&.&.*.*.*.*.&.&.=.P n S =.&.*.*.%.8 % & JXJXJXJXJXJXJXJXJXJXJXJXJXJXJX",
"JXJXJXJXJXJXJXJXJXJXJXJXJXJXJXJX& & I +.+.+.Y Z s u Y Y Y k.j.@.+.+.+.+.+.+.+.+.+.F u F Y +.+.+.o.a & JXJXJXJXJXJXJXJXJXJXJXJXJXJXJXJX",
"JXJXJXJXJXJXJXJXJXJXJXJXJXJXJXJXJXJX* * * * * * * * a % * * * * a % * a & * * a % % * * * a % * * JXJXJXJXJXJXJXJXJXJXJXJXJXJXJXJXJXJX",
"JXJXJXJXJXJXJXJXJXJXJXJXJXJXJXJXJXJX* - & * & & & - & % - & = % % % % % & & % & & - & & & & & % & JXJXJXJXJXJXJXJXJXJXJXJXJXJXJXJXJXJX"
};
