/* XPM */
static char *_13155adad3643479e232f6331d5d567UKTra7lABRAexqsC[] = {
/* columns rows colors chars-per-pixel */
"81 98 194 2 ",
"   c #0E081A",
".  c #0C0517",
"X  c #120C1E",
"o  c #150E21",
"O  c #0D1126",
"+  c #161123",
"@  c #1A1527",
"#  c #1B1628",
"$  c #1E192B",
"%  c #16172B",
"&  c #1E1C30",
"*  c #221527",
"=  c #221629",
"-  c #211C2C",
";  c #2A1829",
":  c #281627",
">  c #301925",
",  c #252133",
"<  c #29273C",
"1  c #342334",
"2  c #491F2D",
"3  c #4D212E",
"4  c #552632",
"5  c #62322F",
"6  c #75372D",
"7  c #622630",
"8  c #643937",
"9  c #763A32",
"0  c #793B32",
"q  c #7A4037",
"w  c #76423C",
"e  c #79433C",
"r  c #2C2D44",
"t  c #312F44",
"y  c #323044",
"u  c #35364C",
"i  c #38384E",
"p  c #38374C",
"a  c #3A3D56",
"s  c #373C56",
"d  c #2D304A",
"f  c #443E51",
"g  c #3F4157",
"h  c #404157",
"j  c #41465C",
"k  c #764542",
"l  c #7A4945",
"z  c #794A49",
"x  c #7A4642",
"c  c #6F4C53",
"v  c #6B4F58",
"b  c #704C52",
"n  c #70535D",
"m  c #444A61",
"M  c #434F6F",
"N  c #46506F",
"B  c #465272",
"V  c #4C587A",
"C  c #435A7F",
"Z  c #515B78",
"A  c #7E4F62",
"S  c #665869",
"D  c #6F626F",
"F  c #7F707A",
"G  c #853B33",
"H  c #B13B3D",
"J  c #DA3F3B",
"K  c #86423A",
"L  c #CE423F",
"P  c #C6403F",
"I  c #DC443F",
"U  c #D1433F",
"Y  c #EA473F",
"T  c #E2433C",
"R  c #FE493E",
"E  c #FB463E",
"W  c #C33F41",
"Q  c #8F5C6E",
"!  c #915C6E",
"~  c #8F5C70",
"^  c #955F71",
"/  c #826C76",
"(  c #8B6C75",
")  c #81717B",
"_  c #B34E53",
"`  c #CE4140",
"'  c #D14140",
"]  c #DC4642",
"[  c #C45356",
"{  c #C3545B",
"}  c #E54642",
"|  c #EE4B45",
" . c #F44A42",
".. c #FC4C43",
"X. c #F24E48",
"o. c #F84F48",
"O. c #FC5148",
"+. c #4F5E84",
"@. c #4E688E",
"#. c #4F658A",
"$. c #536287",
"%. c #56668A",
"&. c #59668A",
"*. c #56688D",
"=. c #59698C",
"-. c #5E6587",
";. c #4D6A91",
":. c #556991",
">. c #5B6C91",
",. c #5F7195",
"<. c #686483",
"1. c #666282",
"2. c #667596",
"3. c #667698",
"4. c #6C7D9D",
"5. c #677899",
"6. c #727E96",
"7. c #727F98",
"8. c #7C7893",
"9. c #6D7083",
"0. c #867580",
"q. c #76849E",
"w. c #7586A5",
"e. c #7D8CA7",
"r. c #7E8FAB",
"t. c #7787A8",
"y. c #7F90AD",
"u. c #848FA6",
"i. c #808FA8",
"p. c #8F94A6",
"a. c #8494AD",
"s. c #8B96AD",
"d. c #9493AA",
"f. c #9299AC",
"g. c #9793AA",
"h. c #8A97B1",
"j. c #8799B4",
"k. c #8A9BB6",
"l. c #879DB9",
"z. c #8D9EB9",
"x. c #8196B6",
"c. c #999BB3",
"v. c #AC9AA6",
"b. c #8DA1BE",
"n. c #92A3BE",
"m. c #A9A1AC",
"M. c #ACABAF",
"N. c #B9B7BB",
"B. c #ABA4B0",
"V. c #8CA3C1",
"C. c #92A5C0",
"Z. c #93A9C5",
"A. c #ABB6CE",
"S. c #ACB9CE",
"D. c #B1BBCE",
"F. c #BDB5C6",
"G. c #AFBDD1",
"H. c #B1BDD2",
"J. c #B8BFD3",
"K. c #A1ADC5",
"L. c #C3BFCE",
"P. c #C5BFD2",
"I. c #B6C0D5",
"U. c #BCC4D5",
"Y. c #BFCADD",
"T. c #BDC7DA",
"R. c #BFCFE2",
"E. c #C5C0D2",
"W. c #C0CBDE",
"Q. c #C0CBDF",
"!. c #C3CBDE",
"~. c #C1CCDF",
"^. c #C0CCDF",
"/. c #C2CCDF",
"(. c #C1CCDF",
"). c #C9C5D8",
"_. c #C4CFE1",
"`. c #C4CFE2",
"'. c #C2CEE2",
"]. c #C4D0E3",
"[. c #C5D1E3",
"{. c #CBD3E3",
"}. c #C5D5E9",
"|. c #CAD6E9",
" X c #C9D9EC",
".X c #D5E2F5",
"XX c #ECECEC",
"oX c #EBEBEB",
"OX c #F7F7F9",
"+X c white",
"@X c #FEFEFE",
"#X c #FEFEFD",
"$X c #FBFAFB",
"%X c #F6F6F8",
/* pixels */
"@ @ @ @ @ @ @ @ @ @ @ @ @ @ @ @ @ @ @ @ @ @ @ @ @ @ @ @ @ @ @ @ @ @ @ @ @ @ @ @ @ @ @ @ @ @ @ @ @ @ @ @ @ @ @ @ @ @ @ @ @ @ @ @ @ @ @ @ @ @ @ @ @ @ @ @ @ @ @ @ @ ",
"@ @ @ @ @ @ @ @ @ @ @ @ @ @ @ @ @ @ @ @ @ @ @ @ @ @ @ @ @ @ @ @ @ @ @ @ @ @ @ @ @ @ @ @ @ @ @ @ @ @ @ @ @ @ @ @ @ @ @ @ @ @ @ @ @ @ @ @ @ @ @ @ @ @ @ @ @ @ @ @ @ ",
"@ @ @ @ @ @ @ @ @ @ @ @ @ @ @ @ @ @ @ @ @ @ @ @ @ @ @ @ @ @ @ @ @ @ @ @ @ @ @ @ @ @ @ @ @ @ @ @ @ @ @ @ @ @ @ @ @ @ @ @ @ @ @ @ @ @ @ @ @ @ @ @ @ @ @ @ @ @ @ @ @ ",
"@ @ @ @ @ @ @ @ @ @ @ @ @ @ @ @ @ @ @ @ @ @ @ @ @ @ @ @ @ @ @ @ @ @ @ @ @ @ @ @ @ @ @ @ @ @ @ @ @ @ @ @ @ @ @ @ @ @ @ @ @ @ @ @ @ @ @ @ @ @ @ @ @ @ @ @ @ @ @ @ @ ",
"@ @ @ @ @ @ @ @ @ @ @ @ @ @ @ @ @ @ @ @ @ @ @ @ @ @ @ @ @ @ @ @ @ @ @ @ @ @ @ @ @ @ @ @ @ @ @ @ @ @ @ @ @ @ @ @ @ @ @ @ @ @ @ @ @ @ @ @ @ @ @ @ @ @ @ @ @ @ @ @ @ ",
"@ @ @ @ @ @ @ @ @ @ @ @ @ @ @ @ @ @ @ @ @ @ @ @ @ @ @ @ @ @ @ @ @ @ @ @ @ @ @ @ @ @ @ @ @ @ @ @ @ @ @ @ @ @ @ @ @ @ @ @ @ @ @ @ @ @ @ @ @ @ @ @ @ @ @ @ @ @ @ @ @ ",
"@ @ @ @ @ @ @ @ @ @ @ @ @ @ @ @ @ @ @ @ @ # # # # # # # # # # # @ @ @ @ @ @ @ @ @ @ @ @ @ @ @ @ @ @ @ @ @ @ @ @ @ @ @ @ @ @ @ @ @ @ @ @ @ @ @ @ @ @ @ @ @ @ @ @ @ ",
"@ @ @ @ @ @ @ @ @ @ @ @ @ @ @ @ @ @ @ + H ' L L L L L L L L U P ; + @ @ @ @ @ @ @ @ @ @ @ @ @ @ @ @ @ @ @ @ @ @ @ @ @ @ @ @ @ @ @ @ @ @ @ @ @ @ @ @ @ @ @ @ @ @ @ ",
"@ @ @ @ @ @ @ @ @ @ @ @ @ @ @ @ @ @ @ @ ] .................... .; + @ @ @ @ @ @ @ @ @ @ @ @ @ @ @ @ @ @ @ @ @ @ @ @ @ @ @ @ @ @ @ @ @ @ @ @ @ @ @ @ @ @ @ @ @ @ @ ",
"@ @ @ @ @ @ @ @ @ @ @ @ @ @ @ @ @ @ @ @ ` .. . . . . . . . . .Y ; + @ @ @ @ @ @ @ @ @ @ @ @ @ @ @ @ @ @ @ @ @ @ @ @ @ @ @ @ @ @ @ @ @ @ @ @ @ @ @ @ @ @ @ @ @ @ @ ",
"@ @ @ @ @ @ @ @ @ @ @ @ @ @ @ @ @ @ @ + L .. . . . . . . . ...Y ; % # # # # # # # # # # # # # # # # # # # # # # # # # # # # @ @ @ @ @ @ @ @ @ @ @ @ @ @ @ @ @ @ @ ",
"@ @ @ @ @ @ @ @ @ @ @ @ @ @ @ @ @ @ @ + ' .. ....... . . . ...Y : + + + + + + + + + + + + + + + + + + + + + + + + + + + + + @ @ @ @ @ @ @ @ @ @ @ @ @ @ @ @ @ @ @ ",
"@ @ @ @ @ @ @ @ @ @ @ @ @ @ @ @ @ @ @ + W | } } } }  . . . ...Y 1 , , , , , , , , , , , , , , , , , , , , , , , , , , , , - @ @ @ @ @ @ @ @ @ @ @ @ @ @ @ @ @ @ @ ",
"@ @ @ @ @ @ @ @ @ @ @ @ @ @ @ @ @ @ @ @ : ; ; ; : > T .. . . .X.F.I.J.I.I.I.I.I.I.I.I.I.I.I.I.I.J.T.XXXXXXXXXXXXXXXXXXoXOXM.  $ @ @ @ @ @ @ @ @ @ @ @ @ @ @ @ @ @ ",
"@ @ @ @ @ @ @ @ @ @ @ @ @ @ @ @ @ @ @ @ + + + + + # I .. . . .X.).[._._._._._._._._._._._._._.].'.{.+X+X+X+X+X+X+X+X+X+X+XN.  $ @ @ @ @ @ @ @ @ @ @ @ @ @ @ @ @ @ ",
"@ @ @ @ @ @ @ @ @ @ @ @ @ @ @ @ @ @ @ @ @ @ @ # @ = I .. . . .X.P.R.W.W.W.W.W.W.W.W.W.W.W.W.W.~.Y.{.+X+X+X+X+X+X+X+X+XOX+XN.  $ @ @ @ @ @ @ @ @ @ @ @ @ @ @ @ @ @ ",
"@ @ @ @ @ @ @ @ @ @ @ @ @ @ @ @ @ @ @ @ @ @ @ @ @ = I .. . . .X.E.'.W.~.~.~.~.~.~.~.~.~.~.~.~.~.Y.{.+X+X+X+X+X+X+X+X+X$X+XN.  $ @ @ @ @ @ @ @ @ @ @ @ @ @ @ @ @ @ ",
"@ @ @ @ @ @ @ @ @ @ @ @ @ @ @ @ @ @ @ @ @ @ @ @ @ = } ........o.E.R.W.~.~.~.~.~.~.~.~.~.~.~.~.~.Y.{.+X+X+X+X+X+X+X+X+X+X+XN.  $ @ @ @ @ @ @ @ @ @ @ @ @ @ @ @ @ @ ",
"@ @ @ @ @ @ @ @ @ @ @ @ @ @ @ @ @ @ @ @ @ @ @ @ @ # P } I ] I ] P.'.W.~.~.~.~.~.~.~.~.~.~.~.~.~.Y.{.OXOXOXOXOXOXOXOXOX%X+XN.  $ @ @ @ @ @ @ @ @ @ @ @ @ @ @ @ @ @ ",
"@ @ @ @ @ @ @ @ @ @ @ @ @ @ @ @ @ @ @ @ @ @ @ @ @ @ * * * * @ - D.].W.~.~.~.~.~.~.~.~.~.~.~.~.~.~.~.W.W.W.W.W.W.W.W.W.W.|.f.X # @ @ @ @ @ @ @ @ @ @ @ @ @ @ @ @ @ ",
"@ @ @ @ @ @ @ @ @ @ @ @ @ @ @ @ @ @ @ @ @ @ @ @ @ @ @ @ @ # + $ D.].W.~.~.~.~.~.~.~.~.~.~.~.~.~.~.~.~.~.~.~.~.~.~.~.~.Y.|.f.X # @ @ @ @ @ @ @ @ @ @ @ @ @ @ @ @ @ ",
"@ @ @ @ @ @ @ @ @ @ @ @ @ @ @ @ @ @ @ @ @ @ @ @ @ @ @ @ @ # + - D.].W.~.~.~.~.~.~.~.~.~.~.~.~.~.~.~.~.~.~.~.~.~.~.~.~.Y.|.f.X # @ @ @ @ @ @ @ @ @ @ @ @ @ @ @ @ @ ",
"@ @ @ @ @ @ @ @ @ @ @ @ @ @ @ @ @ @ @ @ @ @ @ @ @ @ @ @ @ # + - D.].W.~.~.~.~.~.~.~.~.~.W.W.W.W.W.W.W.W.W.W.W.W.W.W.W.Y.|.f.X # @ @ @ @ @ @ @ @ @ @ @ @ @ @ @ @ @ ",
"@ @ @ @ @ @ @ @ @ @ @ @ @ @ @ @ @ @ @ @ @ @ @ @ @ @ @ @ @ # + - D.].W.~.~.~.~.~.~.~.~.~._._._._._._._._._._._._._._._.~. Xf.X # @ @ @ @ @ @ @ @ @ @ @ @ @ @ @ @ @ ",
"@ @ @ @ @ @ @ @ @ @ @ @ @ @ @ @ @ @ @ @ @ @ @ @ @ @ @ @ @ # + - D.].W.~.~.~.~.~.~.~.'.Y.I.I.I.I.I.I.I.I.I.I.I.I.I.I.I.H.Y.u.X # @ @ @ @ @ @ @ @ @ @ @ @ @ @ @ @ @ ",
"@ @ @ @ @ @ @ @ @ @ @ @ @ @ @ @ @ @ @ @ @ @ @ @ @ @ @ @ @ # + - D.].W.~.~.~.~.~.~.W._.H.=.=.=.=.=.=.=.=.=.=.=.=.=.=.=.=.>.N + # @ @ @ @ @ @ @ @ @ @ @ @ @ @ @ @ @ ",
"@ @ @ @ @ @ @ @ @ @ @ @ @ @ @ @ @ @ @ @ @ @ @ @ @ @ @ @ @ # + - D.].W.~.~.~.~.~.~.W.].H.%.%.%.%.%.%.%.%.%.%.%.%.%.%.%.%.>.M + # @ @ @ @ @ @ @ @ @ @ @ @ @ @ @ @ @ ",
"@ @ @ @ @ @ @ @ @ @ @ @ @ @ @ @ @ @ @ @ @ @ @ @ @ @ @ @ @ # + - D.].W.~.~.~.~.~.~.W.].H.&.%.&.%.%.%.%.%.%.%.%.%.%.%.%.%.>.M + # @ @ @ @ @ @ @ @ @ @ @ @ @ @ @ @ @ ",
"@ @ @ @ @ @ @ @ @ @ @ @ @ @ @ @ @ @ @ @ @ @ @ @ @ @ @ @ @ # + - D.].W.~.~.~.~.~.~.W.].H.=.=.=.=.=.=.%.%.%.%.%.%.=.=.=.%.>.B + # @ @ @ @ @ @ @ @ @ @ @ @ @ @ @ @ @ ",
"@ @ @ @ @ @ @ @ @ @ @ @ @ @ @ @ @ @ @ @ @ @ @ @ @ @ @ @ @ # + - D.].W.~.~.~.~.~.~.W.].H.$.$.$.$.$.%.%.%.%.%.%.%.$.$.$.$.=.M + # @ @ @ @ @ @ @ @ @ @ @ @ @ @ @ @ @ ",
"@ @ @ @ @ @ @ @ @ @ @ @ @ @ @ @ @ @ @ @ @ @ @ @ @ @ @ @ @ # + - D.].W.~.~.~.~.~.~.W._.H.5.2.2.2.5.2.%.%.%.%.%.=.5.2.2.2.4.Z o # @ @ @ @ @ @ @ @ @ @ @ @ @ @ @ @ @ ",
"@ @ @ @ @ @ @ @ @ @ @ @ @ @ @ @ @ @ @ @ @ @ @ @ @ @ @ @ @ # + - D.].W.~.~.~.~.~.~.~.~.~.'.'.~.Y.[.A.$.=.%.=.$.4.'.~.~.Y.|.f.X # @ @ @ @ @ @ @ @ @ @ @ @ @ @ @ @ @ ",
"@ @ @ @ @ @ @ @ @ @ @ @ @ @ @ @ @ @ @ @ @ @ @ @ @ @ @ @ @ # + - D.].W.~.~.~.~.~.~.~.~.~.~.~.~.W.].A.$.*.%.=.$.4.'.W.~.Y.|.f.X # @ @ @ @ @ @ @ @ @ @ @ @ @ @ @ @ @ ",
"@ @ @ @ @ @ @ @ @ @ @ @ @ @ @ @ @ @ @ @ @ @ @ @ @ @ @ @ @ # + - D.].W.~.~.~.~.~.~.~.~.~.~.~.~.W.].A.$.*.%.=.$.4.'.W.~.Y.|.f.X # @ @ @ @ @ @ @ @ @ @ @ @ @ @ @ @ @ ",
"@ @ @ @ @ @ @ @ @ @ @ @ @ @ @ @ @ @ @ @ @ @ @ @ @ @ # # # # @ - D.].W.~.~.~.~.~.~.~.~.~.~.~.~.W.].A.$.*.%.=.$.4.'.W.~.Y.|.f.X # @ @ @ @ @ @ @ @ @ @ @ @ @ @ @ @ @ ",
"@ @ @ @ @ @ @ @ @ @ @ @ @ @ @ @ @ @ @ @ @ @ @ @ @ @ + O O + O % S.].W.~.~.~.~.~.~.~.~.~.~.~.~.W.].A.$.*.%.=.$.4.'.W.~.Y.|.f.X # @ @ @ @ @ @ @ @ @ @ @ @ @ @ @ @ @ ",
"@ @ @ @ @ @ @ @ @ @ @ @ @ @ @ @ @ @ @ @ @ @ @ @ @ @ 2 3 3 3 2 4 D.].W.~.~.~.~.~.~.~.~.~.~.~.~.W.].A.$.=.&.=.$.4.'.W.~.Y.|.f.X # @ @ @ @ @ @ @ @ @ @ @ @ @ @ @ @ @ ",
"@ @ @ @ @ @ @ @ @ @ @ @ @ @ @ @ @ @ @ @ @ @ @ @ @ = } ........O.E.R.W.~.~.~.~.~.~.~.~.~.~.~.~.W.].A.$.*.&.=.$.4.'.W.~.Y.|.f.X # @ @ @ @ @ @ @ @ @ @ @ @ @ @ @ @ @ ",
"@ @ @ @ @ @ @ @ @ @ @ @ @ @ @ @ @ @ @ @ @ @ @ @ @ = I .. . .E X.L.R.W.~.~.~.~.~.~.~.~.~.~.~.~.W.].A.$.=.&.=.$.4.'.W.~.Y.|.f.X # @ @ @ @ @ @ @ @ @ @ @ @ @ @ @ @ @ ",
"@ @ @ @ @ @ @ @ @ @ @ @ @ @ @ @ @ @ @ @ @ @ @ @ @ * I .. . . .X.L.R.W.~.~.~.~.~.~.~.~.~.~.~.~.W.].A.$.=.%.=.$.4.'.W.~.Y.|.f.X # @ @ @ @ @ @ @ @ @ @ @ @ @ @ @ @ @ ",
"@ @ @ @ @ @ @ @ @ @ @ @ @ @ @ @ @ @ @ @ # # # # # = I .. . . .X.L.Y.W.W.W.W.W.W.W.W.W.W.W.W.W.Y.].A.%.=.=.=.$.4.'.Y.Y.T.}.f.X # @ @ @ @ @ @ @ @ @ @ @ @ @ @ @ @ @ ",
"@ @ @ @ @ @ @ @ @ @ @ @ @ @ @ @ @ @ @ @ + o + + o + T R E ..E ..).}.}.}.}.}._._._._._._._._._.'.{.S.$.%.%.%.+.4. X|.|.|..Xc.X # @ @ @ @ @ @ @ @ @ @ @ @ @ @ @ @ @ ",
"@ @ @ @ @ @ @ @ @ @ @ @ @ @ @ @ @ @ @ @ r r r r r t _ [ [ [ [ { v.m.m.m.m.B.H.G.G.G.G.G.G.G.G.G.H.K.2.5.5.5.5.4.p.p.p.p.f.9.o # @ @ @ @ @ @ @ @ @ @ @ @ @ @ @ @ @ ",
"@ @ @ @ @ @ @ @ @ @ @ @ @ @ @ @ @ @ @ + Z >.>.>.>.>.@.@.@.@.@.#.9 6 9 9 6 w a.j.j.j.j.j.j.j.j.j.j.k.z.z.z.z.n.6.. X X X   X # @ @ @ @ @ @ @ @ @ @ @ @ @ @ @ @ @ @ ",
"@ @ @ @ @ @ @ @ @ @ @ @ @ @ @ @ @ @ @ + V =.%.%.%.%.&.&.&.&.&.&.k e w e e z h.z.k.k.k.k.k.k.k.k.k.k.k.k.k.k.b.6.+ $ # # # # @ @ @ @ @ @ @ @ @ @ @ @ @ @ @ @ @ @ @ ",
"@ @ @ @ @ @ @ @ @ @ @ @ @ @ @ @ @ @ @ + V =.%.%.%.%.%.%.%.%.*.&.k e e w e z h.k.k.k.k.k.k.k.k.k.k.k.k.k.k.k.b.6.+ # @ @ @ @ @ @ @ @ @ @ @ @ @ @ @ @ @ @ @ @ @ @ @ ",
"@ @ @ @ @ @ @ @ @ @ @ @ @ @ @ @ @ @ @ + V =.%.%.%.%.%.%.%.%.*.&.k e w w e z h.k.k.k.k.k.k.k.k.k.k.k.k.k.k.k.b.6.+ # # # # # @ @ @ @ @ @ @ @ @ @ @ @ @ @ @ @ @ @ @ ",
"@ @ @ @ @ @ @ @ @ @ @ @ @ @ @ @ @ @ @ + V =.%.%.%.%.%.%.%.%.*.&.w 0 q q 0 l h.k.k.k.k.k.k.k.k.k.k.k.k.k.k.k.b.6.X + + + + + @ @ @ @ @ @ @ @ @ @ @ @ @ @ @ @ @ @ @ ",
"@ @ @ @ @ @ @ @ @ @ @ @ @ @ @ @ @ @ @ + V =.%.%.%.%.%.%.%.%.%.&.v b c c c n h.k.k.k.k.k.k.k.k.k.k.k.k.k.k.k.b.q.r r r r r < @ @ @ @ @ @ @ @ @ @ @ @ @ @ @ @ @ @ @ ",
"@ @ @ @ @ @ @ @ @ @ @ @ @ @ @ @ @ @ @ + V =.%.%.%.%.%.%.%.%.%.%.:.:.:.:.*.>.k.k.k.k.k.k.k.k.k.k.k.k.k.k.k.k.z.y.=.>.=.=.,.B + # @ @ @ @ @ @ @ @ @ @ @ @ @ @ @ @ @ ",
"@ @ @ @ @ @ @ @ @ @ @ @ @ @ @ @ @ @ @ + V =.%.%.%.%.%.%.%.%.%.%.%.%.%.%.%.=.k.k.k.k.k.k.k.k.k.k.k.k.k.k.k.k.z.r.%.%.%.%.>.M + # @ @ @ @ @ @ @ @ @ @ @ @ @ @ @ @ @ ",
"@ @ @ @ @ @ @ @ @ @ @ @ @ @ @ @ @ @ @ + V =.%.%.%.%.%.%.%.%.%.%.%.%.%.%.%.=.k.k.k.k.k.k.k.k.k.k.k.k.k.k.k.k.z.r.%.%.%.%.>.M + # @ @ @ @ @ @ @ @ @ @ @ @ @ @ @ @ @ ",
"@ @ @ @ @ @ @ @ @ @ @ @ @ @ @ @ @ @ @ + V =.&.&.&.&.%.%.%.%.%.%.%.%.%.%.%.=.j.k.k.k.k.k.k.k.k.k.k.k.k.k.k.k.z.r.%.%.%.%.>.M + # @ @ @ @ @ @ @ @ @ @ @ @ @ @ @ @ @ ",
"@ @ @ @ @ @ @ @ @ @ @ @ @ @ @ @ @ @ @ + C ;.@.;.;.;.%.%.%.%.%.%.%.%.%.%.%.=.k.z.z.z.z.z.k.k.k.k.k.k.k.k.k.k.z.r.%.%.%.%.>.M + # @ @ @ @ @ @ @ @ @ @ @ @ @ @ @ @ @ ",
"@ @ @ @ @ @ @ @ @ @ @ @ @ @ @ @ @ @ @ @ A ^ Q ! ! ~ -.%.%.%.%.%.%.%.%.%.%.=.w.t.w.w.w.t.k.k.k.k.k.k.k.k.k.k.z.r.%.%.%.%.>.M + # @ @ @ @ @ @ @ @ @ @ @ @ @ @ @ @ @ ",
"@ @ @ @ @ @ @ @ @ @ @ @ @ @ @ @ @ @ @ + J R R R R ..<.*.&.%.%.%.%.%.%.%.%.%.$.$.$.%.$.=.k.k.k.k.k.k.k.k.k.k.z.r.%.%.%.%.>.M + # @ @ @ @ @ @ @ @ @ @ @ @ @ @ @ @ @ ",
"@ @ @ @ @ @ @ @ @ @ @ @ @ @ @ @ @ @ @ @ ` .. . . .| <.*.&.%.%.%.%.%.%.%.%.%.=.=.=.=.%.>.k.k.k.k.k.k.k.k.k.k.z.r.%.%.%.%.>.M + # @ @ @ @ @ @ @ @ @ @ @ @ @ @ @ @ @ ",
"@ @ @ @ @ @ @ @ @ @ @ @ @ @ @ @ @ @ @ @ ' .. . . .| <.*.&.%.%.%.%.%.%.%.%.%.%.%.%.%.%.>.k.k.k.k.k.k.k.k.k.k.z.r.%.%.%.%.>.M + # @ @ @ @ @ @ @ @ @ @ @ @ @ @ @ @ @ ",
"@ @ @ @ @ @ @ @ @ @ @ @ @ @ @ @ @ @ @ @ ' .. . . .| <.*.=.=.=.=.%.%.%.%.%.%.=.=.=.=.%.>.k.k.k.k.k.k.k.k.k.k.z.r.%.%.%.%.>.M + # @ @ @ @ @ @ @ @ @ @ @ @ @ @ @ @ @ ",
"@ @ @ @ @ @ @ @ @ @ @ @ @ @ @ @ @ @ @ @ ' .. . . .| 1.#.$.$.$.$.:.:.:.:.:.*.$.$.$.%.$.=.k.k.k.k.k.k.k.k.k.k.z.r.%.%.%.%.>.M + # @ @ @ @ @ @ @ @ @ @ @ @ @ @ @ @ @ ",
"@ @ @ @ @ @ @ @ @ @ @ @ @ @ @ @ @ @ @ @ ' .. . . .| 8.4.4.4.4.4.S S S S S S 4.4.4.4.4.w.k.k.k.k.k.k.k.k.k.k.z.r.%.%.%.%.>.M + # @ @ @ @ @ @ @ @ @ @ @ @ @ @ @ @ @ ",
"@ @ @ @ @ @ @ @ @ @ @ @ @ @ @ @ @ @ @ @ ' .. . . .| g.b.z.z.b.k.e 0 0 0 0 x k.b.z.z.z.z.k.k.k.k.k.k.k.k.k.k.z.r.%.%.%.%.>.M + # @ @ @ @ @ @ @ @ @ @ @ @ @ @ @ @ @ ",
"@ @ @ @ @ @ @ @ @ @ @ @ @ @ @ @ @ @ @ @ ' .. . . .| d.l.k.k.k.h.z q w w e z s.k.k.k.k.k.k.k.k.k.k.k.k.k.k.k.z.r.%.%.%.%.>.M + # @ @ @ @ @ @ @ @ @ @ @ @ @ @ @ @ @ ",
"@ @ @ @ @ @ @ @ @ @ @ @ @ @ @ @ @ @ @ @ ' .. . . .| d.l.k.k.k.h.z e w w e z s.k.k.k.k.k.k.k.k.k.k.k.k.k.k.k.z.r.%.%.%.%.>.M + # @ @ @ @ @ @ @ @ @ @ @ @ @ @ @ @ @ ",
"@ @ @ @ @ @ @ @ @ @ @ @ @ @ @ @ @ @ @ @ ' .. . . .| d.l.h.h.k.h.z e w w e z s.k.h.h.k.k.k.k.k.k.k.k.k.k.k.k.z.e.%.%.%.%.=.M + # @ @ @ @ @ @ @ @ @ @ @ @ @ @ @ @ @ ",
"@ @ @ @ @ @ @ @ @ @ @ @ @ @ @ @ @ @ @ @ ' .. . . .| c.V.b.b.V.z.z q w w e z z.V.b.b.V.b.b.V.V.V.V.b.b.b.b.b.V.x.>.>.>.>.3.B + # @ @ @ @ @ @ @ @ @ @ @ @ @ @ @ @ @ ",
"@ @ @ @ @ @ @ @ @ @ @ @ @ @ @ @ @ @ @ @ ' .. . . . .( F / / / / e e e e e e / / / / / / / / / / / / / / / / ) D s s s s a d + @ @ @ @ @ @ @ @ @ @ @ @ @ @ @ @ @ @ ",
"@ @ @ @ @ @ @ @ @ @ @ @ @ @ @ @ @ @ @ @ ' .. . . .| G 9 0 9 9 9 e e e e e e 9 9 9 0 0 9 9 9 9 9 9 9 9 9 9 9 0 5 X X X X X + @ @ @ @ @ @ @ @ @ @ @ @ @ @ @ @ @ @ @ ",
"@ @ @ @ @ @ @ @ @ @ @ @ @ @ @ @ @ @ @ @ ' .. . . . .K w e w e w e e e e e e e e w w e e e e e e e e e e e w e 8 @ # # # # # @ @ @ @ @ @ @ @ @ @ @ @ @ @ @ @ @ @ @ ",
"@ @ @ @ @ @ @ @ @ @ @ @ @ @ @ @ @ @ @ @ ' .. . . . .K q e e e e e e e e e e e e e e e e e e e e e e e e e e e 8 + @ @ @ @ @ @ @ @ @ @ @ @ @ @ @ @ @ @ @ @ @ @ @ @ ",
"@ @ @ @ @ @ @ @ @ @ @ @ @ @ @ @ @ @ @ @ ' .. . . . .K w e w w w e e w w w e e e e e e e e e e e e e e e e w e 8 + @ @ @ @ @ @ @ @ @ @ @ @ @ @ @ @ @ @ @ @ @ @ @ @ ",
"@ @ @ @ @ @ @ @ @ @ @ @ @ @ @ @ @ @ @ @ ' .. . . . .G 9 0 0 0 0 0 0 0 0 0 0 0 0 0 0 0 0 9 9 0 0 0 0 0 0 0 9 0 5 + @ @ @ @ @ @ @ @ @ @ @ @ @ @ @ @ @ @ @ @ @ @ @ @ ",
"@ @ @ @ @ @ @ @ @ @ @ @ @ @ @ @ @ @ @ @ ' .. . . .| ( F ) ) ) ) ) ) ) ) ) ) ) ) ) ) ) ) ) ) ) ) ) ) ) ) ) ) 0.S + # @ @ @ @ @ @ @ @ @ @ @ @ @ @ @ @ @ @ @ @ @ @ @ ",
"@ @ @ @ @ @ @ @ @ @ @ @ @ @ @ @ @ @ @ @ ' .. . . .| c.V.b.b.b.b.b.b.b.b.b.b.b.b.b.b.b.b.b.b.b.b.b.b.b.b.b.b.Z.q.+ # @ @ @ @ @ @ @ @ @ @ @ @ @ @ @ @ @ @ @ @ @ @ @ ",
"@ @ @ @ @ @ @ @ @ @ @ @ @ @ @ @ @ @ @ @ ' .. . . .X.d.l.h.h.h.h.h.k.k.k.k.k.k.k.k.k.k.k.k.k.k.k.k.k.k.k.k.h.b.6.+ # @ @ @ @ @ @ @ @ @ @ @ @ @ @ @ @ @ @ @ @ @ @ @ ",
"@ @ @ @ @ @ @ @ @ @ @ @ @ @ @ @ @ @ @ @ ' .. . . .| d.l.k.k.k.k.k.k.k.k.k.k.k.k.k.k.k.k.k.k.k.k.k.k.k.k.k.k.b.7.+ # @ @ @ @ @ @ @ @ @ @ @ @ @ @ @ @ @ @ @ @ @ @ @ ",
"@ @ @ @ @ @ @ @ @ @ @ @ @ @ @ @ @ @ @ @ ' .. . . .| d.l.k.k.k.k.k.k.k.k.k.k.k.k.k.k.k.k.k.k.k.k.k.k.k.k.k.k.b.7.+ # @ @ @ @ @ @ @ @ @ @ @ @ @ @ @ @ @ @ @ @ @ @ @ ",
"@ @ @ @ @ @ @ @ @ @ @ @ @ @ @ @ @ @ @ @ ' .. . . .| d.l.k.k.k.k.k.k.k.k.k.k.C.C.C.C.C.C.C.C.C.C.C.n.k.k.k.k.b.7.+ # @ @ @ @ @ @ @ @ @ @ @ @ @ @ @ @ @ @ @ @ @ @ @ ",
"@ @ @ @ @ @ @ @ @ @ @ @ @ @ @ @ @ @ @ @ ' .. . . .| d.l.k.k.k.k.k.k.k.k.z.a.m m m m m m m m m m j Z z.k.k.k.b.7.+ # @ @ @ @ @ @ @ @ @ @ @ @ @ @ @ @ @ @ @ @ @ @ @ ",
"@ @ @ @ @ @ @ @ @ @ @ @ @ @ @ @ @ @ @ @ ' .. . . .| d.l.k.k.k.k.k.k.k.k.z.e.o X X X X X X X X X . < z.k.k.k.b.7.+ # @ @ @ @ @ @ @ @ @ @ @ @ @ @ @ @ @ @ @ @ @ @ @ ",
"@ @ @ @ @ @ @ @ @ @ @ @ @ @ @ @ @ @ @ @ ' .. . . .| d.l.k.k.k.k.k.k.k.k.z.i.- # $ # # # # # # $ + y z.k.k.k.b.7.+ # @ @ @ @ @ @ @ @ @ @ @ @ @ @ @ @ @ @ @ @ @ @ @ ",
"@ @ @ @ @ @ @ @ @ @ @ @ @ @ @ @ @ @ @ @ ' .. . . .| d.l.k.k.k.k.k.k.k.k.z.e.$ @ @ # @ @ @ @ @ # o t z.k.k.k.b.7.+ # @ @ @ @ @ @ @ @ @ @ @ @ @ @ @ @ @ @ @ @ @ @ @ ",
"@ @ @ @ @ @ @ @ @ @ @ @ @ @ @ @ @ @ @ @ ` .. . . .| d.j.h.k.k.k.k.k.k.k.z.e.$ @ @ @ @ @ @ @ @ # o t z.k.k.k.b.7.+ # @ @ @ @ @ @ @ @ @ @ @ @ @ @ @ @ @ @ @ @ @ @ @ ",
"@ @ @ @ @ @ @ @ @ @ @ @ @ @ @ @ @ @ @ @ ] ........O.c.V.n.C.C.n.k.k.k.k.z.e.$ @ @ @ @ @ @ @ @ # o t z.k.k.k.b.7.+ # @ @ @ @ @ @ @ @ @ @ @ @ @ @ @ @ @ @ @ @ @ @ @ ",
"@ @ @ @ @ @ @ @ @ @ @ @ @ @ @ @ @ @ @ @ 4 7 7 7 7 7 f g h h a j a.z.k.k.z.e.$ @ @ @ @ @ @ @ @ # o t z.k.k.k.b.7.+ # @ @ @ @ @ @ @ @ @ @ @ @ @ @ @ @ @ @ @ @ @ @ @ ",
"@ @ @ @ @ @ @ @ @ @ @ @ @ @ @ @ @ @ @ # O O O O O O X X X X X + i.z.k.k.z.e.$ @ @ @ @ @ @ @ @ # o t z.k.k.k.b.7.+ # @ @ @ @ @ @ @ @ @ @ @ @ @ @ @ @ @ @ @ @ @ @ @ ",
"@ @ @ @ @ @ @ @ @ @ @ @ @ @ @ @ @ @ @ @ # # # # # # # # # $ # - i.z.k.k.z.e.$ @ @ @ @ @ @ @ @ # o t z.k.k.k.b.7.+ # @ @ @ @ @ @ @ @ @ @ @ @ @ @ @ @ @ @ @ @ @ @ @ ",
"@ @ @ @ @ @ @ @ @ @ @ @ @ @ @ @ @ @ @ @ @ @ @ @ @ @ @ @ @ # + $ i.z.k.k.z.e.$ @ @ @ @ @ @ @ @ # o t z.k.k.k.b.6.+ # @ @ @ @ @ @ @ @ @ @ @ @ @ @ @ @ @ @ @ @ @ @ @ ",
"@ @ @ @ @ @ @ @ @ @ @ @ @ @ @ @ @ @ @ @ @ @ @ @ @ @ @ @ @ # @ $ e.z.k.k.z.e.$ @ @ @ @ @ @ @ @ # o t z.k.k.j.b.6.+ # @ @ @ @ @ @ @ @ @ @ @ @ @ @ @ @ @ @ @ @ @ @ @ ",
"@ @ @ @ @ @ @ @ @ @ @ @ @ @ @ @ @ @ @ @ @ @ @ @ @ @ @ @ @ # + $ a.n.b.b.C.a.$ + @ @ @ @ @ @ @ # o y n.n.n.b.Z.q.+ # @ @ @ @ @ @ @ @ @ @ @ @ @ @ @ @ @ @ @ @ @ @ @ ",
"@ @ @ @ @ @ @ @ @ @ @ @ @ @ @ @ @ @ @ @ @ @ @ @ @ @ @ @ @ @ @ # u p p p i u # @ @ @ @ @ @ @ @ @ + & i p p p i y @ @ @ @ @ @ @ @ @ @ @ @ @ @ @ @ @ @ @ @ @ @ @ @ @ ",
"@ @ @ @ @ @ @ @ @ @ @ @ @ @ @ @ @ @ @ @ @ @ @ @ @ @ @ @ @ @ @ @ o o o o X o @ @ @ @ @ @ @ @ @ @ @ @ o X X X X o @ @ @ @ @ @ @ @ @ @ @ @ @ @ @ @ @ @ @ @ @ @ @ @ @ ",
"@ @ @ @ @ @ @ @ @ @ @ @ @ @ @ @ @ @ @ @ @ @ @ @ @ @ @ @ @ @ @ @ # # # # # # @ @ @ @ @ @ @ @ @ @ @ @ # # # # # # @ @ @ @ @ @ @ @ @ @ @ @ @ @ @ @ @ @ @ @ @ @ @ @ @ ",
"@ @ @ @ @ @ @ @ @ @ @ @ @ @ @ @ @ @ @ @ @ @ @ @ @ @ @ @ @ @ @ @ @ @ @ @ @ @ @ @ @ @ @ @ @ @ @ @ @ @ @ @ @ @ @ @ @ @ @ @ @ @ @ @ @ @ @ @ @ @ @ @ @ @ @ @ @ @ @ @ @ ",
"@ @ @ @ @ @ @ @ @ @ @ @ @ @ @ @ @ @ @ @ @ @ @ @ @ @ @ @ @ @ @ @ @ @ @ @ @ @ @ @ @ @ @ @ @ @ @ @ @ @ @ @ @ @ @ @ @ @ @ @ @ @ @ @ @ @ @ @ @ @ @ @ @ @ @ @ @ @ @ @ @ ",
"@ @ @ @ @ @ @ @ @ @ @ @ @ @ @ @ @ @ @ @ @ @ @ @ @ @ @ @ @ @ @ @ @ @ @ @ @ @ @ @ @ @ @ @ @ @ @ @ @ @ @ @ @ @ @ @ @ @ @ @ @ @ @ @ @ @ @ @ @ @ @ @ @ @ @ @ @ @ @ @ @ ",
"@ @ @ @ @ @ @ @ @ @ @ @ @ @ @ @ @ @ @ @ @ @ @ @ @ @ @ @ @ @ @ @ @ @ @ @ @ @ @ @ @ @ @ @ @ @ @ @ @ @ @ @ @ @ @ @ @ @ @ @ @ @ @ @ @ @ @ @ @ @ @ @ @ @ @ @ @ @ @ @ @ ",
"@ @ @ @ @ @ @ @ @ @ @ @ @ @ @ @ @ @ @ @ @ @ @ @ @ @ @ @ @ @ @ @ @ @ @ @ @ @ @ @ @ @ @ @ @ @ @ @ @ @ @ @ @ @ @ @ @ @ @ @ @ @ @ @ @ @ @ @ @ @ @ @ @ @ @ @ @ @ @ @ @ "
};
