/* XPM */
static char *result[] = {
/* columns rows colors chars-per-pixel */
"98 98 59 1 ",
"  c #010001",
". c #0D0303",
"X c #040208",
"o c #0E0508",
"O c #120603",
"+ c #140805",
"@ c #1C0A05",
"# c #110508",
"$ c #130909",
"% c #1D0B08",
"& c #260E06",
"* c #270F08",
"= c #271007",
"- c #26100A",
"; c #2B120B",
": c #35140A",
"> c #8B3D15",
", c #8F3E19",
"< c #8C411B",
"1 c #9E4514",
"2 c #93421D",
"3 c #9F451E",
"4 c #9E4A1E",
"5 c #AE4713",
"6 c #AE4815",
"7 c #A44B1F",
"8 c #AB4A1C",
"9 c #B24716",
"0 c #B24A14",
"q c #BF4E15",
"w c #B34B19",
"e c #BE4C19",
"r c #BF5013",
"t c #BA5019",
"y c #974120",
"u c #A24523",
"i c #AE4D21",
"p c #BE5521",
"a c #C14E15",
"s c #C44F19",
"d c #C45116",
"f c #C95216",
"g c #C55319",
"h c #C95319",
"j c #D25515",
"k c #D95615",
"l c #D65815",
"z c #D85815",
"x c #D15618",
"c c #DB5618",
"v c #E7570E",
"b c #E9560D",
"n c #E75A0E",
"m c #E95A0F",
"M c #EB5712",
"N c #E75A11",
"B c #E85A10",
"V c #E55F1B",
"C c #CA5922",
/* pixels */
"bvbbmbbbbbvbbvvbmmmmmmmbbbbbmmmbbbvbbvbbvvj&X   +abbmmvbvbvvvvbbmmmmmmmmmbbbmvvvvvbbMbbbvbbb0.    ",
"vmvmBBnmvnmBnvBvBBmmmmBBmmmmBBmmmvNmmmBvBNj&  X OdmmBBmmmmBBvMBmBBmmmmnBmmvmBBmmBBvBBBBBBBmb0.    ",
"mBBBBBBBBBBBBBBBmBVnmmmBBBmnBBBBmnBBBBmBBNx& X  .dmBmBBBNmNBBBmBBBBBmnmBBNmNBBBBBBBBBBBBNBnB0.    ",
"vBBBBnBBBBNBBBBmBmmnmmmBBmnmBBBBnmBBBBBBBvj&    .dmBmNmNBBBBBBBBBBBmmmBBBBBmBnBBBBBBBBBBmmnN0+    ",
"vBBBBmBBnBBBBBBmBBBnBBBBBBBBBnBBBBBBBBBBBvx*   X.gnBnBmNBBBBBmBBnnnmBBBBmBBmBBBBBNBBBBBBBmnB0+    ",
"nmBBBNBBBBBBBBBBBBBnBBBBBBBBNNBBBBnBBmBBBNj*    .dmBBBNBBmBBBBBBnBVmBBBBBNBBBBBBBBBBBBBvBnmB0.    ",
"nBBBBBBBBBBBBBBBBBBBBBBBBBBBNBBBBBBBBmBBBNj=    .dmmNBNBBBBBBmBBBBBBBBBBBmNBBBBBBBBBBBBBBBmB0.    ",
"vBBBBBnBBBBBmBBBBBBBBBBBBnBBBBBBBBBBBBBBBNj-    .gmmBBNNBBBBBBBBBBBBBBBBBBBBBBnBBBBNBBBBBmnB0.    ",
"nBBBBBBBBBBBnBBBBBBBBBBBBBBBBBBBBBBBBBBBBBl=    +gBBBBBBBBBBBBBBBBBnBBBBBBBBBBBBmBBBnBBnBBnN0.    ",
"nBBBBBBBBBBBBBBBBnBBBnBBBnBBBBBBBnBBBBBnBBx=    +xBBBBNBBnnBBBBBBBBBBBBBBNNBBBnBNBBBnBBBBBmN0+    ",
"nnBBnBnBBBBBBNBBBBBBBBBBNNBBBnmBBnBBBBBBnnx=  X .rBBBBBBBBBBBBnBBBBBBBBBBBnBBBBBBBnBBBBBBmBB0.    ",
"nBBBBBBBnBBBBNNnBBBBBBBBBBBBBBBBBBBBBBnBnnj=    +rnBBBBBBBBBBNNBnBBBBBBBBBBBBBBBBBBBBBBBBmmm0.    ",
"nmBBNBBBBBnBBBBBBBBBBBBBBBBBBBBBBBBBBBBBBBf=    .rnNNNBBBBBBBBBBBNBBBBBBBBnBBBnBBBBBNBBBBmmN0.    ",
"nmBnNnBBBBBBBBBBNNBnnBBBBBnBBBBBBBBNBBBBBNj&    +rnNnNBNnBBBBBBBBnBBBnBBBBBBBBBBnBBBBBBNBBmB0+    ",
"nBBBNNBBBBBBBBBBNNBBBBnBNNBBBBBBBNNNBnnBBNj=  X +gnBBNBBBBBBNNBnNNNBBBBBBNBBBBBBBBBBBNBNBBBn0+    ",
"nNnnnNnnnnnnnnnnnnnBnnnnBnnnnmBmnnnnBnnnmnx=   X+gnBBBnBnnnnnnnnnNnnnnnnnnnnBmmmnnBnnnnnnnmm9.    ",
"mnmmmmmmmmmmBvMmmmMBmmMmmmmBmmBmmmmmmmmmnnj; X XognnnnmmmmBmmMmmBBBBBBMmmMmmmmmBmBmBBBmmBNNm9.    ",
"VVVVVVVVVVVVVVVVVVVVVVVVVVVVVVVVVVVVVVVVVVC-   X+tVVVVVVVVVVVVVVVVVVVVVVVVVVVVVVVVVVVVVVVNVV8O    ",
":::::::::::::::::::::::::::::::::::::::::::X X  X:::::::::::::::::::::::::::::::::::::::::::;X    ",
"       X                                        X                                                 ",
"                                                                                                  ",
"X                 X X                X                             X                              ",
"                                                                                                  ",
"oo.o.o.ooo.o....OoX   X ++oo....O.......O...O...+..o.o.o....O...Oo$o      o.........o..o.o..o.oo..",
"rqqaaaaaaaaqaaaqq7@    .ygddaarrrrqqrrrarrrrrrrrrrrrrrrddrqdrrrrdrd<.    +8eesaasqaaaaaaaaqaaqaagq",
"mmmmbmBmMmMmmmmmNj@    OhBBnmmmmmmmmmmbbnnmmmmmmmmmmmmnmmnmmvmbbmmv8o    &fmNbBmBBmmBbMBmmMmmBBBNN",
"vnmmnnnnnnmnnnnnmj@    .gmNNnNNNNNnNnnnnBNNNvnnnnnnnnnmBnNnNnnnnmBm8.    @jBNNBnmnnnnnmnnnnnmmmnBB",
"vBBBBNmBBBmmNmmnmf@    .gmNBmBmBmnmmmnmmnBBBmvmmmmmnmmBNnmmNmmnmmMm6.    @jNBBBBBBmBBmBBmNmBBBNBBB",
"mmBBBBNBBmNBBBmmnf@    .gnNNnnNNNNBBBBBNBNNNNBBBNNNNNNNNNBNBBBBNNNmw.    @jmmBBBBBBNBBBBBBBBBBBBnm",
"vnnmnmmmBnmmnmnmmj@    .gnBNmmnmBBBBnmBBnBBBBBBmmnBBNnNNBBBnnnBBnNm9.    %lBMNBBmnmmmnnmnmmNmBNBBB",
"vnBBBBBBBBBBBBBmmj@    .gnNNBnBBBBBBBBBBBBBBBBNmBBBBNNBBBBBBBBBBnBmwX    %jBvBNBNBmBBBBBBBBBNmNBNB",
"nmBBBBBNBBBnBBBnmj@    .gnNnBmBBBBBBBBBBBBBBBBBBBBBBNNBBBBBBBBBBmBm9.    %jBBNNBBBNBBBBBmNBBNmBBNB",
"BBBBBBnnNnBBBBmnnj@    .gmNnNmBNBBBBBBBBBBBBmBnNBBBBBBBBBBnBBBBBnBm9.    @kNBBBBBBBNBBBBBBBBnnBBNm",
"BBBBBnnnNNBBBBBmmj@    .gmNNBmBBNBBBBBBnBBBBBBBBBBBBnBBBnBnBBBBnnBBwX    @jNMNBBBBBBBBBBBBBBBnBBNn",
"mBnBBBBBBBBBBBBmnj@    .dnnNBmBBNNnBBBBBBBBBBBBBBBBBBBBBBBBBBBBBnBB9.    @jNBNNBBBBBBBBBBBBBBnBnNN",
"nBBBBBBBBBBBnBnmmf@    .gmNNBnmNNNNNBBBBmBBBBNBBBBBBBBBBBBBBBBBBNBB6.    @xNBNNBBBBBBBBBnBBBBnBBvn",
"nBBBnBBBBBBBBBBmmj@    .gnNnBmNBBBBBnBBBBmBBBBBBBBBBBBBnBBBBnBBBnBmw.    @jBBNNBnBBBBBnBBnBBBBBmvN",
"nBnmBBBBBBBBBBmmmj@    .gnNNNmmBBBBNBBBBBBBBBBBBBnBBBBBBBBBBBBBBnmBw.    @jBBNNBBBBBBBBBBBBBBBNBNN",
"nBBBBBBBBBBBmBmmmf@    .dmNnNmBBBBBnBBBBBBBBBBBBBBBnBBBBBBBnBBBBnNB9.    @jBMNNBNNBBBBBBBBBBBmBBNB",
"nnnnnnBBBBBBmmmmnj@    odmmNBmBBBBBBBBBnBBBmBBBBBBBBnBBBNnNBBBnBnmm8.    @jNBNNNBBBBnBBBBBBBBnmmNB",
"mmBBBBBBBBBMmBmbMj%    odmmNBmBBnNNNBBBBBBBBBBBBBBBBBBBBBBBBBBNNBMm9.    @xNMBBBmmmBBBBMmmBMBBBBNN",
"nmmBBBmmmmmmmmmbnj% X  #gmmmmmmmBmmmmmMmMmmBmBBBBBBBBBBMmBBBBmmmmBm9.    %zNmNBBmBmmBBmmmmmmBBMmBM",
"ghhhhhhhhhhhhhhffi&    O7sggdsdggghhgggggghggggghggghggghggggghhhgd2o    @wgfhghhhhhghhghhhhhhhhhh",
"OOOO+OOOoOOOO+OOO+ X   X###OO#OO+..+.Ooo+o.O.O..OO.O.O.o++..+..+.#.#X     .+O+OO+.++OOO$OOOOOO.O++",
"X               X         X X       X X     X         X  X X  X                                   ",
"X        X     X                    X         X                 X  X      X  X            X      X",
"X  XX        X          X X  X        X   X      XX  X    X  XX    X   X   X        X     X X    X",
"       X  X         XX          X X     X      X         X             X           X   X          ",
"O++OOOOOOOOOOOO++++++.+++++O+++++O++OOOOO+O X   XO+OOOOOOOOOO+OO+++++++++OOO++++++++++++++++o     ",
"gffffffffffffffffxffffffddfffffffffxfffhhf8$    Oihfffffffdfffffgxdfffffffffgffdffdfffffdfff2.    ",
"mmmmBBBBmmmBnmnnBBNBnBmBmmnmBBBBmmNmMBBmmms+    OgBNmBBBmBBBBmBBBBBBmmmmBBmmBBNNnnmBnmBBnmmN6.    ",
"nnnmnNmBmmmnmmnmBnnnnBnBmmnmmnBNmmBmmmnmmvg$X   +fmNmBBmmmmmmmMmBnnBmvmmmmmmBBnBmmmmmmBBmnmN6.    ",
"mmBBMBBBBBBBBBBBNBBBBBBBBBBBBBBBBBBBBBMBBma+ X  OfBNBBNBNNNNBBBBBBBBNNBBBBBBBBNNnBBBNNNNnnBN6     ",
"mBnNBBBBBBBBBNBBBBBBBBBBBBBBBBBBBBBBNNBNBnd+ X  +fBBBNnBNNNNBBBBnnBBBBBnBBBBBBNNnnBBNBNNmnmB6.    ",
"vNBBBBBBBBBnBBBBBBBNBBBBBBBBBBBBBBBBBBBBNva+    OfBmNmBNNBNNBBBBBBBBBBBBBBBBBBBBBBBBBBBBBBmB6.    ",
"mmmNBBBBBBBBBBBBBBBBBBBBBBBBBBBBBBBBmNBBBvg+    .fBmNmBBBBBBBBBBBBBBBBBBBBBBBBBBBBBBBBBBBBBM6.    ",
"nBBBBBBBBBBNNNNBBBBBBBnBBBBBBBBBBBBBBBBnBNa+    +hNBBBBBBBBBBBBBBBBBBBBBBBBBnNBBBBBBBBNnBNmM6.    ",
"nBBBBBBNBBBBnNBBnBBBnBnBBBBBBBBBBBBmBBBnNvs+X   OhNBnBBBBBBBBBnBBBBBBBBBBBBBNBBBBBBnBBNNBBmB5.    ",
"nmBBBBBNBBBBBBBBBBBBBBBBBBBBBBNBBBBBBBBmBNa+    OfNBnmBBBBBBBBBBBBBBBBBnBBBBNBBBBBBBBBnNBBMN6.    ",
"nmBBBBBnBBBBBBBBBBBBBBBBBBBBBBNNBBBBBBBmBvd$.   +fBnBmBNBBBBBBBBBBBNBBBBBBBBBBBnBBBBBBNNBBBN6     ",
"nnBBBBBBBBBNBBBBBBBnBBnBBnBBBBBnBBBBBBBnBvg+    .fmnnmmNBBBBBnnBBNBNnBBBBBBBBBBBNNnBBBBBnBnN5.    ",
"nmBBBBBBBBBNBBBBBBBBBBBBBBBBBBBBBBBBBBBnBva+    +fBmnmBnBBBBnBnBBBBnBBBBBBBnBBBBBBBBBBBBBBmB5.    ",
"nBBnBBNBBBnNBnBBnBBBBBBBBnBBBBNnBBNBBBBBBmg+X   OfBBnBBBBBBBBBBBBBBnBBBBBBBBBBBBBBBBBNBnBBmB6     ",
"nBBBmBBmmBmmBBBBmBBnBBBBBBBBmBBmBBmBBBNnBvs+    OfBBBBBBBBBBBBNNBBmmBBBnBBBBmBBBBmBBmmBBmBmB6.    ",
"nnvBvBvBvmBvBvBBMvBBvvBvBvvBmvBvBvBmBmmNmvd+   X+fBBnnmmvmBvBvBBMvBBBvvvvmBvBvBMvBMvvmBvBBmN6.    ",
"vmBmBBvMBBBBBMBBMvBBBBBBMMBBBBBMBvBBBBBNnvs+  X +fBBBmBBBBBBBMBBMBBBMMBBBBBBBMBBBBBBBBBBvmBN6.    ",
"nNNNNNBBNmnnBNNBvNBvnNnnmNNnNBBBnNnnBmBnNNs+  X +gmBnmNNNmnnBNNBvNNNNBBNNmnnBNNBvNBvmNnnBBvB5.    ",
"eeeeeeeseeeeaaeeeeaeeeeeseeeeeeaeeeeeeeeeeuOX X +4qeeeeeeeeeaaeeeeeaeeeaeeeeaaeeeeaeeeeeeeer<.    ",
"................o..........................    X ...............................o............     ",
"                                                                                                  ",
"                                                                                                  ",
"                                                                                                  ",
"                                                                                                  ",
"%%@%&@@@@@@@@@@@%@X    X@@@%@%@%@-@@@@%%%%%%@@@@@@@@%%%@%@@%%%%@@@@@X     %%@@@%%@@@%@%%@@@%%@@@@%",
"lzzzczzzzklzzzzklp@    .7czllzzzzzzzzzzzzzzzzzVlzclzzzzzzzzzzzzzllk8OX   @gllllzzzzzzzzzlclczkzllz",
"mMBBBBBBBBBBBBBBnx%    .tnnnBMBBmmmmBBBNBBNBNNmmNNNBMBBBBBBBMBBBBNBwO    %xNNNNBBBMBBmBBBBBNBBmmNB",
"BvmmmmmmBmmmmmmmnx@    .dBNBBmmmmmmmmmmmmmmmmmmmMmmmmmmmmmmmmmmmBvn0+    @jmmnnmmmmmmmmmmmmmBmmmNm",
"mmmmnnmnmmmmmmBmnx%    otmBBBBmmmmmmmmmBmmmmBBmmmmmmmmnmmmmmmmmmmmNe+    @xBmnmmmmmmnmmmmmmmmBmmvB",
"bmNBnNBBBBmmmBBmnl%     eBBBnBmmmBBBmmBBBBmBBBNnBBBBmBBBBBBmmBmBBmBwO    @znnNBBBBmmBBnBmmBBNmBmNN",
"nmmNmmmBBBBBmmBmnj%    .eBBnnBBBBBBBBBBBBBBBBBNNBmBBmmBBBBBBmBBBBBBe.    @lnmBBBBBBBBBBBBmBBBBBmNv",
"nBBBBBBBnBBBBBmmnj@    .enBNmNBBBBBBBBBBBBBBBnBNBnBBBBBBBBnBBBBBBBmw+    %jBBBVMmBBBBBBBBnBBBBBBNN",
"nBBBBnBBBBBBBBnnnj@    .eNBnmNBBBNBBBnBnBBNnBBBBBBBBBBBBBBBBnBBBBBBwO    @kBBBBNBBBBBBBBBBBBBBBBvn",
"nBnBBBBBBBBBBBNmmf@     eBBBmNBBBBBBBBBBBBBBBBBBBBnnnBBBBBBBBBBBBmme.    @xBBBNNBBBBBBBNBBBnBnNBNN",
"nBBBBBBBBBBBnBmmmj%    .enMBNNmBBBBnBBBBBBBBBBBnBBBBBBBBBBBBBBmBBBmw+    @zBBMMNBBmBBBBNBBBBBnnBNn",
"nmnmBBBBBBBnBBBnmj@    .eBBNmBBBBBBBBBBBBBBBBBBBBnBBNBBBBBBBmNBBBBBwO    @lnMNNNBBBBnBBBBBBBBmBBNN",
"nmBBBBBBBBBBNmBmvj&    .eBMNBBBBBBBBBBBBnBBBBBBBBBBBnBBBnBNNBBBBBBBwO    @jBMNNNBBBBBBBBBBBBBnBmNn",
"nBBnBBNBBBBBBBmnmf@     eBBNBBBBBBBBBBBBnBBBBBBBnBBBBBBBBBBBBBBBmBBtO    %kNMNNBBBBBBBBnBBBBBBBBNB",
"nBBBBBNnBBBBBNBmnj@    .eBBNBBnBmBBBBBBBBBBnnBBBBBBBBBBBnBBBBBBBBBBwO    @jNMNNBnBBBBBBBBBBBBBBBBB",
"nnBBBBBBBBBBBBnmnj&    .eBBBBBNNBBBBBBBBBBBBBNBBBnmmBmmBBBNBBBBBBBBtO    @jBmBNBBBBBBBBBnmBBBBmBBB",
"vmBBmmBmBBBmmmmmnj@    .sBBBBmmmBBBBmNBBmBmBmBBmBBmmmmmmmBmmmBmmBBmwO    &jBBBBBmmBBBBBBBBmmmmBBBB",
"nBBMBBBMBBBBBBBNNf%    .eNNBMBBBBBBBBMMMBBBMBMBBmBmmmmVBBBBBBMBMNBBt+    %fnBBMNBMBMMNBMBBBmVBBMBB",
"mmbmBmmBmmmnBmBmMj@    .eBMBmmmBmmmmBBBBmMmmmBmmBBBBmmmmmmmmmmMmmmBtO    @lnmBNBBBBBBMBmmmBmmBmmBm",
"566996669966099661+     ,696966699666566956666659906w66699666669965>.    +356669066699699006t66666",
" .   ..    .    .        .   ..    . .   .. .  .     ..    . .    .        . .  . .         . . . ",
"                                                                                                  ",
"                                                                                                  ",
"                                                                                                  ",
"                                                                                                  "
};
